<svg xmlns="http://www.w3.org/2000/svg" viewBox="0 0 800 600" width="800" height="600">
  <defs>
    <style>
      text { font-family: -apple-system, BlinkMacSystemFont, 'Segoe UI', sans-serif; }
    </style>
  </defs>

  <!-- Dark background -->
  <rect width="800" height="600" fill="#111827" rx="12"/>

  <!-- Header -->
  <text x="40" y="40" fill="#f9fafb" font-size="20" font-weight="700">Spray Chart</text>
  <text x="40" y="62" fill="#9ca3af" font-size="13">#24 Marcus Rivera — Spring 2026 (18 games)</text>

  <!-- Legend -->
  <circle cx="560" cy="30" r="6" fill="#22c55e"/>
  <text x="572" y="35" fill="#d1d5db" font-size="11">Single</text>
  <circle cx="630" cy="30" r="6" fill="#3b82f6"/>
  <text x="642" y="35" fill="#d1d5db" font-size="11">Double</text>
  <circle cx="700" cy="30" r="6" fill="#f59e0b"/>
  <text x="712" y="35" fill="#d1d5db" font-size="11">Triple</text>
  <circle cx="560" cy="52" r="6" fill="#ef4444"/>
  <text x="572" y="57" fill="#d1d5db" font-size="11">Home Run</text>
  <circle cx="650" cy="52" r="6" fill="#6b7280"/>
  <text x="662" y="57" fill="#d1d5db" font-size="11">Out</text>

  <!-- Field - outfield grass arc -->
  <path d="M 400 520 L 130 250 A 340 340 0 0 1 670 250 L 400 520 Z" fill="#15803d" opacity="0.25"/>

  <!-- Infield diamond -->
  <polygon points="400,520 280,400 400,280 520,400" fill="#92400e" opacity="0.2" stroke="#a16207" stroke-width="1" opacity="0.4"/>

  <!-- Base paths -->
  <line x1="400" y1="520" x2="280" y2="400" stroke="#a16207" stroke-width="1.5" opacity="0.5"/>
  <line x1="280" y1="400" x2="400" y2="280" stroke="#a16207" stroke-width="1.5" opacity="0.5"/>
  <line x1="400" y1="280" x2="520" y2="400" stroke="#a16207" stroke-width="1.5" opacity="0.5"/>
  <line x1="520" y1="400" x2="400" y2="520" stroke="#a16207" stroke-width="1.5" opacity="0.5"/>

  <!-- Bases -->
  <rect x="394" y="514" width="12" height="12" fill="white" transform="rotate(45 400 520)"/>
  <rect x="274" y="394" width="12" height="12" fill="white" transform="rotate(45 280 400)"/>
  <rect x="394" y="274" width="12" height="12" fill="white" transform="rotate(45 400 280)"/>
  <rect x="514" y="394" width="12" height="12" fill="white" transform="rotate(45 520 400)"/>

  <!-- Foul lines extended -->
  <line x1="400" y1="520" x2="100" y2="220" stroke="#a16207" stroke-width="1" opacity="0.3"/>
  <line x1="400" y1="520" x2="700" y2="220" stroke="#a16207" stroke-width="1" opacity="0.3"/>

  <!-- Outfield fence arc -->
  <path d="M 130 250 A 340 340 0 0 1 670 250" fill="none" stroke="#374151" stroke-width="2" stroke-dasharray="8,4"/>

  <!-- Hit dots - Singles (green) - scattered around infield and shallow outfield -->
  <circle cx="340" cy="390" r="7" fill="#22c55e" opacity="0.85"/>
  <circle cx="460" cy="385" r="7" fill="#22c55e" opacity="0.85"/>
  <circle cx="310" cy="355" r="7" fill="#22c55e" opacity="0.85"/>
  <circle cx="490" cy="360" r="7" fill="#22c55e" opacity="0.85"/>
  <circle cx="370" cy="340" r="7" fill="#22c55e" opacity="0.85"/>
  <circle cx="430" cy="345" r="7" fill="#22c55e" opacity="0.85"/>
  <circle cx="350" cy="310" r="7" fill="#22c55e" opacity="0.85"/>
  <circle cx="445" cy="320" r="7" fill="#22c55e" opacity="0.85"/>
  <circle cx="290" cy="330" r="7" fill="#22c55e" opacity="0.85"/>
  <circle cx="510" cy="340" r="7" fill="#22c55e" opacity="0.85"/>
  <circle cx="380" cy="295" r="7" fill="#22c55e" opacity="0.85"/>
  <circle cx="420" cy="300" r="7" fill="#22c55e" opacity="0.85"/>
  <circle cx="330" cy="280" r="7" fill="#22c55e" opacity="0.85"/>
  <circle cx="475" cy="290" r="7" fill="#22c55e" opacity="0.85"/>
  <circle cx="360" cy="265" r="7" fill="#22c55e" opacity="0.85"/>
  <circle cx="440" cy="270" r="7" fill="#22c55e" opacity="0.85"/>
  <circle cx="400" cy="310" r="7" fill="#22c55e" opacity="0.85"/>

  <!-- Doubles (blue) - gaps and down the lines -->
  <circle cx="250" cy="280" r="7" fill="#3b82f6" opacity="0.85"/>
  <circle cx="550" cy="285" r="7" fill="#3b82f6" opacity="0.85"/>
  <circle cx="300" cy="240" r="7" fill="#3b82f6" opacity="0.85"/>
  <circle cx="500" cy="245" r="7" fill="#3b82f6" opacity="0.85"/>
  <circle cx="350" cy="210" r="7" fill="#3b82f6" opacity="0.85"/>
  <circle cx="450" cy="215" r="7" fill="#3b82f6" opacity="0.85"/>
  <circle cx="220" cy="300" r="7" fill="#3b82f6" opacity="0.85"/>
  <circle cx="570" cy="295" r="7" fill="#3b82f6" opacity="0.85"/>

  <!-- Triples (amber) - deep gaps -->
  <circle cx="210" cy="250" r="7" fill="#f59e0b" opacity="0.85"/>
  <circle cx="580" cy="240" r="7" fill="#f59e0b" opacity="0.85"/>
  <circle cx="270" cy="200" r="7" fill="#f59e0b" opacity="0.85"/>

  <!-- Home Runs (red) - over the fence -->
  <circle cx="400" cy="160" r="8" fill="#ef4444" opacity="0.9"/>
  <circle cx="330" cy="175" r="8" fill="#ef4444" opacity="0.9"/>
  <circle cx="470" cy="170" r="8" fill="#ef4444" opacity="0.9"/>
  <circle cx="250" cy="200" r="8" fill="#ef4444" opacity="0.9"/>
  <circle cx="540" cy="195" r="8" fill="#ef4444" opacity="0.9"/>

  <!-- Outs (gray) - spread around -->
  <circle cx="355" cy="375" r="6" fill="#6b7280" opacity="0.7"/>
  <circle cx="445" cy="370" r="6" fill="#6b7280" opacity="0.7"/>
  <circle cx="310" cy="310" r="6" fill="#6b7280" opacity="0.7"/>
  <circle cx="490" cy="315" r="6" fill="#6b7280" opacity="0.7"/>
  <circle cx="370" cy="250" r="6" fill="#6b7280" opacity="0.7"/>
  <circle cx="430" cy="255" r="6" fill="#6b7280" opacity="0.7"/>
  <circle cx="280" cy="270" r="6" fill="#6b7280" opacity="0.7"/>
  <circle cx="520" cy="275" r="6" fill="#6b7280" opacity="0.7"/>
  <circle cx="400" cy="230" r="6" fill="#6b7280" opacity="0.7"/>
  <circle cx="340" cy="200" r="6" fill="#6b7280" opacity="0.7"/>
  <circle cx="460" cy="205" r="6" fill="#6b7280" opacity="0.7"/>
  <circle cx="380" cy="360" r="6" fill="#6b7280" opacity="0.7"/>
  <circle cx="420" cy="380" r="6" fill="#6b7280" opacity="0.7"/>
  <circle cx="300" cy="350" r="6" fill="#6b7280" opacity="0.7"/>

  <!-- Stats summary bar at bottom -->
  <rect x="40" y="555" width="720" height="30" rx="6" fill="#1f2937"/>
  <text x="60" y="575" fill="#9ca3af" font-size="12">68 AB</text>
  <text x="140" y="575" fill="#22c55e" font-size="12" font-weight="600">17 1B</text>
  <text x="220" y="575" fill="#3b82f6" font-size="12" font-weight="600">8 2B</text>
  <text x="290" y="575" fill="#f59e0b" font-size="12" font-weight="600">3 3B</text>
  <text x="360" y="575" fill="#ef4444" font-size="12" font-weight="600">5 HR</text>
  <text x="440" y="575" fill="#6b7280" font-size="12">14 Outs</text>
  <text x="560" y="575" fill="#d1d5db" font-size="12" font-weight="600">.485 AVG</text>
  <text x="660" y="575" fill="#d1d5db" font-size="12" font-weight="600">.985 SLG</text>
</svg>