<svg xmlns="http://www.w3.org/2000/svg" viewBox="0 0 64 64">
  <circle cx="32" cy="32" r="30" fill="#f5f5f5" stroke="#cc0000" stroke-width="2"/>
  <path d="M20 8 C22 14, 22 20, 20 26 C18 32, 18 38, 20 44 C22 50, 22 56, 20 56" fill="none" stroke="#cc0000" stroke-width="2" stroke-linecap="round"/>
  <path d="M44 8 C42 14, 42 20, 44 26 C46 32, 46 38, 44 44 C42 50, 42 56, 44 56" fill="none" stroke="#cc0000" stroke-width="2" stroke-linecap="round"/>
  <line x1="20" y1="10" x2="17" y2="8" stroke="#cc0000" stroke-width="1.5" stroke-linecap="round"/>
  <line x1="20" y1="15" x2="16" y2="14" stroke="#cc0000" stroke-width="1.5" stroke-linecap="round"/>
  <line x1="20" y1="20" x2="16" y2="20" stroke="#cc0000" stroke-width="1.5" stroke-linecap="round"/>
  <line x1="20" y1="26" x2="16" y2="27" stroke="#cc0000" stroke-width="1.5" stroke-linecap="round"/>
  <line x1="19" y1="32" x2="15" y2="33" stroke="#cc0000" stroke-width="1.5" stroke-linecap="round"/>
  <line x1="20" y1="38" x2="16" y2="38" stroke="#cc0000" stroke-width="1.5" stroke-linecap="round"/>
  <line x1="20" y1="44" x2="16" y2="44" stroke="#cc0000" stroke-width="1.5" stroke-linecap="round"/>
  <line x1="20" y1="50" x2="17" y2="52" stroke="#cc0000" stroke-width="1.5" stroke-linecap="round"/>
  <line x1="44" y1="10" x2="47" y2="8" stroke="#cc0000" stroke-width="1.5" stroke-linecap="round"/>
  <line x1="44" y1="15" x2="48" y2="14" stroke="#cc0000" stroke-width="1.5" stroke-linecap="round"/>
  <line x1="44" y1="20" x2="48" y2="20" stroke="#cc0000" stroke-width="1.5" stroke-linecap="round"/>
  <line x1="44" y1="26" x2="48" y2="27" stroke="#cc0000" stroke-width="1.5" stroke-linecap="round"/>
  <line x1="45" y1="32" x2="49" y2="33" stroke="#cc0000" stroke-width="1.5" stroke-linecap="round"/>
  <line x1="44" y1="38" x2="48" y2="38" stroke="#cc0000" stroke-width="1.5" stroke-linecap="round"/>
  <line x1="44" y1="44" x2="48" y2="44" stroke="#cc0000" stroke-width="1.5" stroke-linecap="round"/>
  <line x1="44" y1="50" x2="47" y2="52" stroke="#cc0000" stroke-width="1.5" stroke-linecap="round"/>
</svg>
