<svg xmlns="http://www.w3.org/2000/svg" viewBox="0 0 64 64">
  <circle cx="32" cy="32" r="31" fill="#dc2626"/>
  <circle cx="32" cy="32" r="27" fill="#ffffff"/>
  <g fill="none" stroke="#dc2626" stroke-linecap="round">
    <!-- seams -->
    <path d="M14.22 10 A35 35 0 0 1 14.22 54" stroke-width="3.2"/>
    <path d="M49.78 10 A35 35 0 0 0 49.78 54" stroke-width="3.2"/>
    <!-- left stitches -->
    <g stroke-width="2.8">
      <line x1="14.12" y1="15.4" x2="21.12" y2="18.6"/>
      <line x1="16.69" y1="22.9" x2="23.69" y2="26.1"/>
      <line x1="17.5" y1="30.4" x2="24.5" y2="33.6"/>
      <line x1="16.69" y1="37.9" x2="23.69" y2="41.1"/>
      <line x1="14.12" y1="45.4" x2="21.12" y2="48.6"/>
    </g>
    <!-- right stitches -->
    <g stroke-width="2.8">
      <line x1="49.88" y1="15.4" x2="42.88" y2="18.6"/>
      <line x1="47.31" y1="22.9" x2="40.31" y2="26.1"/>
      <line x1="46.5" y1="30.4" x2="39.5" y2="33.6"/>
      <line x1="47.31" y1="37.9" x2="40.31" y2="41.1"/>
      <line x1="49.88" y1="45.4" x2="42.88" y2="48.6"/>
    </g>
  </g>
</svg>
